Coordinates
version=1
nRows=24
nColumns=24
inDegrees=yes

Units are S.I. units (second, meters, Newtons, ...)
Angles are in degrees.

endheader
time	pelvis_tilt	pelvis_list	pelvis_rotation	pelvis_tx	pelvis_ty	pelvis_tz	hip_flexion_r	hip_adduction_r	hip_rotation_r	knee_angle_r	ankle_angle_r	subtalar_angle_r	mtp_angle_r	hip_flexion_l	hip_adduction_l	hip_rotation_l	knee_angle_l	ankle_angle_l	subtalar_angle_l	mtp_angle_l	lumbar_extension	lumbar_bending	lumbar_rotation
      2.23500000	      9.93981156	      5.89172922	     -3.88156419	      0.73008653	      0.93617282	      0.00205892	    -15.90291040	     -8.68501296	     -2.94287432	    -44.91140295	      5.89942968	     -1.67031778	     56.12048644	      4.47737653	      8.38312064	    -10.53719715	     -8.14745666	      2.82054436	    -15.30924697	     31.33361956	    -15.87413228	     -8.55886009	      3.59437885
      2.24000000	      9.59250034	      6.09201876	     -3.92859779	      0.73554582	      0.93619262	      0.00149233	    -14.47899977	     -8.93886827	     -2.46345509	    -46.87263769	      4.67911470	     -2.04411831	     55.94713860	      4.69728383	      8.58534768	    -10.72632520	     -8.54995838	      3.45607435	    -14.95294567	     31.21741480	    -15.53506477	     -8.79780417	      3.64061141
      2.24500000	      9.21044105	      6.27737160	     -3.91290738	      0.74100478	      0.93618753	      0.00087545	    -13.04370931	     -9.14049319	     -2.04220991	    -48.74770836	      3.59379264	     -2.43956403	     55.63675917	      4.92368054	      8.77384620	    -10.84785323	     -8.90324060	      4.12306512	    -14.54012913	     30.81590511	    -15.16654764	     -9.00398128	      3.58444947
      2.25000000	      8.92482918	      6.45231572	     -3.89883427	      0.74642206	      0.93632211	      0.00028404	    -11.72990471	     -9.32741101	     -1.67149236	    -50.54113848	      2.78555164	     -2.78292731	     53.97396511	      5.02932456	      8.95702338	    -10.98216698	     -9.25334997	      5.03819667	    -13.81607528	     27.93547908	    -14.90999339	     -9.20366515	      3.57744727
      2.25500000	      8.68947066	      6.56856320	     -3.90677807	      0.75186924	      0.93659297	     -0.00023204	    -10.49840059	     -9.43682171	     -1.27749237	    -52.18776988	      1.99631447	     -3.28051000	     53.76803970	      5.02258399	      9.08200489	    -11.17720671	     -9.47387587	      5.62234444	    -13.38662465	     27.79263774	    -14.70457455	     -9.34320391	      3.57384175
      2.26000000	      8.41392863	      6.67795914	     -3.84232184	      0.75728819	      0.93681206	     -0.00082504	     -9.25105313	     -9.52450404	     -0.99809653	    -53.76729193	      1.52404259	     -3.69668011	     52.97168863	      5.05537509	      9.19687710	    -11.29821802	     -9.70408281	      6.30394665	    -12.75591446	     27.12785631	    -14.46584307	     -9.45691102	      3.51166995
      2.26500000	      8.30444812	      6.73729281	     -3.86899815	      0.76270847	      0.93731228	     -0.00125370	     -8.19615133	     -9.55631762	     -0.64742765	    -55.23442587	      1.31902979	     -4.09210801	     50.65869506	      4.85492262	      9.27388897	    -11.51325833	     -9.83714199	      7.03832166	    -12.15800911	     24.95458810	    -14.40256514	     -9.53987078	      3.52675511
      2.27000000	      8.16806451	      6.74203255	     -3.85821282	      0.76808109	      0.93782118	     -0.00171979	     -7.13985899	     -9.51423064	     -0.35554863	    -56.57709970	      1.15534147	     -4.70176923	     50.38879892	      4.66539371	      9.29518651	    -11.65488270	     -9.92434683	      7.53823727	    -11.75821454	     24.81636425	    -14.32134024	     -9.54856256	      3.53266779
      2.27500000	      8.04123103	      6.75074301	     -3.82250195	      0.77345392	      0.93835394	     -0.00218678	     -6.11634413	     -9.47355265	     -0.13122977	    -57.86079747	      1.40143775	     -5.07269113	     48.06093376	      4.46451401	      9.31642820	    -11.83499376	    -10.03082747	      8.25140511	    -11.05745467	     23.00189600	    -14.25492887	     -9.55600363	      3.47915625
      2.28000000	      7.95472152	      6.69266483	     -3.79338036	      0.77876106	      0.93898199	     -0.00263797	     -5.15540242	     -9.35734457	      0.06313956	    -59.01212506	      1.59909082	     -5.74192883	     47.77781095	      4.19297640	      9.27948748	    -11.91647427	    -10.06848094	      8.70086226	    -10.69779731	     22.86412650	    -14.24080633	     -9.48839955	      3.47250321
      2.28500000	      7.87601135	      6.63428960	     -3.76641051	      0.78409632	      0.93963246	     -0.00305663	     -4.22253715	     -9.24253921	      0.21887303	    -60.09890280	      2.18988414	     -6.18012015	     45.43856542	      3.90463989	      9.23777444	    -12.06929717	    -10.10743672	      9.33261363	    -10.09252298	     21.23821709	    -14.23182001	     -9.41808982	      3.42292275
      2.29000000	      7.81469695	      6.53070991	     -3.71841000	      0.78937948	      0.94036067	     -0.00350920	     -3.33430452	     -9.07198246	      0.32228728	    -61.04990939	      2.60514518	     -6.98093666	     45.22878282	      3.56629358	      9.16662748	    -12.09499159	    -10.06298813	      9.69312002	     -9.84380761	     21.15835163	    -14.25340487	     -9.28777797	      3.36013111
      2.29500000	      7.67651417	      6.43199575	     -3.66476102	      0.79456838	      0.94092430	     -0.00391711	     -2.34602794	     -8.90961929	      0.39715998	    -61.99098779	      3.36152673	     -7.45910044	     43.56157391	      3.37617298	      9.06690192	    -12.23163567	    -10.16115987	     10.30256871	     -9.17924825	     20.20148248	    -14.19729284	     -9.16241294	      3.31935146
      2.30000000	      7.60039686	      6.27479554	     -3.63159613	      0.79974761	      0.94162817	     -0.00429491	     -1.44928946	     -8.67192857	      0.46529545	    -62.80555170	      4.03216945	     -8.23359091	     42.00105036	      3.06665610	      8.93350277	    -12.24720664	    -10.14503443	     10.77074340	     -8.88596752	     19.19538631	    -14.20860348	     -8.97201040	      3.30402002
      2.30500000	      7.59100529	      6.07391569	     -3.59440891	      0.80496387	      0.94248729	     -0.00469373	     -0.67106404	     -8.39647516	      0.48444428	    -63.46351767	      4.60645079	     -9.13091991	     41.74798252	      2.62969474	      8.77680763	    -12.18481325	    -10.00866310	     11.00821402	     -8.83421649	     19.07826227	    -14.29518769	     -8.72615808	      3.27346768
      2.31000000	      7.49464351	      5.89595517	     -3.56649298	      0.81008483	      0.94315319	     -0.00503015	      0.23137240	     -8.14179634	      0.50076117	    -64.13455311	      5.45512063	     -9.73776272	     39.27534731	      2.34911390	      8.61619214	    -12.21481245	    -10.00203465	     11.50510126	     -8.45112435	     17.70439628	    -14.28868028	     -8.50767562	      3.26940281
      2.31500000	      7.37572915	      5.71049353	     -3.48905047	      0.81519002	      0.94378547	     -0.00543357	      1.13213328	     -7.88924502	      0.42354685	    -64.69764681	      6.08622304	    -10.59232984	     38.64212918	      2.08940738	      8.45401084	    -12.15056433	     -9.97823074	     11.88959124	     -8.22475037	     17.32101952	    -14.26557200	     -8.26605341	      3.20398448
      2.32000000	      7.36009679	      5.48525574	     -3.44431160	      0.82030005	      0.94459762	     -0.00578801	      1.88986681	     -7.59056512	      0.35988492	    -65.12781617	      6.63988032	    -11.53793769	     38.42129294	      1.67553698	      8.27175563	    -12.04210897	     -9.85779766	     12.08835804	     -8.25461157	     17.24670285	    -14.35582403	     -7.98594440	      3.16159212
      2.32500000	      7.27599403	      5.25327819	     -3.37779194	      0.82540155	      0.94528898	     -0.00614340	      2.71516224	     -7.28617725	      0.25017555	    -65.49834295	      7.15644256	    -12.48118113	     38.04502054	      1.34958372	      8.07304982	    -11.92935125	     -9.76690991	     12.36073250	     -8.20850784	     17.14278670	    -14.36972236	     -7.69113988	      3.10469736
      2.33000000	      7.10479687	      5.03081016	     -3.33909662	      0.83048613	      0.94581793	     -0.00645216	      3.65145018	     -6.99105145	      0.16656639	    -65.86532572	      7.96889003	    -12.97293575	     35.05615986	      1.12966820	      7.87330064	    -11.86323019	     -9.70111665	     12.77311510	     -7.97822424	     15.91464187	    -14.27831869	     -7.40721204	      3.11375286
      2.33500000	      7.08052885	      4.80486501	     -3.25596081	      0.83559793	      0.94655483	     -0.00684869	      4.37158935	     -6.71823264	     -0.01749609	    -66.06782914	      8.42699308	    -13.85926365	     34.88817302	      0.72354266	      7.69626617	    -11.68922392	     -9.57073483	     13.00296843	     -8.02101850	     15.85615380	    -14.35953348	     -7.10911139	      3.03885766
      2.34000000	      7.01174724	      4.54368378	     -3.18426447	      0.84070529	      0.94722464	     -0.00718016	      5.12907090	     -6.39483233	     -0.18988467	    -66.19762444	      8.86934940	    -14.67465989	     34.61350766	      0.37082824	      7.47349005	    -11.53862739	     -9.45189818	     13.23705053	     -8.06956031	     15.77450562	    -14.38567709	     -6.77525629	      2.99141972
      2.34500000	      6.94404109	      4.28424717	     -3.10331010	      0.84580561	      0.94786519	     -0.00752238	      5.87143397	     -6.08105721	     -0.38732154	    -66.25931173	      9.30752979	    -15.41734152	     34.23743940	      0.02059083	      7.25261199	    -11.37146481	     -9.33617015	     13.47257946	     -8.11208416	     15.66768482	    -14.41388962	     -6.43885500	      2.94097705
      2.35000000	      6.86951921	      4.06736935	     -3.04199980	      0.85090928	      0.94842354	     -0.00782634	      6.62821559	     -5.81795112	     -0.57102793	    -66.31381472	     10.02600806	    -15.76686224	     31.36248451	     -0.32171471	      7.07521904	    -11.21577155	     -9.22045840	     13.82026501	     -8.01585620	     14.64646203	    -14.42759521	     -6.15449649	      2.90255114
